<?xml version="1.0" encoding="UTF-8"?>
<!-- Created with Inkscape (http://www.inkscape.org/) -->
<svg width="40.391mm" height="39.966mm" version="1.1" viewBox="0 0 40.390541 39.965633" xmlns="http://www.w3.org/2000/svg" xmlns:cc="http://creativecommons.org/ns#" xmlns:dc="http://purl.org/dc/elements/1.1/" xmlns:rdf="http://www.w3.org/1999/02/22-rdf-syntax-ns#">
 <metadata>
  <rdf:RDF>
   <cc:Work rdf:about="">
    <dc:format>image/svg+xml</dc:format>
    <dc:type rdf:resource="http://purl.org/dc/dcmitype/StillImage"/>
    <dc:title/>
   </cc:Work>
  </rdf:RDF>
 </metadata>
 <g transform="translate(132.34 -20.656)">
  <g transform="translate(-144.55 -3.6493)">
   <circle cx="33.149" cy="44.814" r="19.279" fill="#04080f" stroke="#04080f" stroke-width=".35474"/>
   <circle cx="31.671" cy="43.762" r="19.279" fill="#a1c6ea" stroke="#a1c6ea" stroke-width=".35474"/>
   <g transform="translate(-93.927 -29.293)">
    <rect x="112.34" y="68.486" width="26.507" height="11.193" fill="#fff" stroke="#fff" stroke-width=".18397"/>
    <g transform="matrix(.029107 0 0 .029107 111.05 58.502)" fill="#04080f">
     <g transform="matrix(.1 0 0 -.1 0 511)" fill="#04080f">
      <path d="m476.9 2705.4c-103.3-38.3-191.3-111-258.3-216.2-122.4-191.3-118.6-111-118.6-2378.1 0-2290.1-5.7-2192.5 130.1-2391.5 42.1-61.2 109.1-126.3 164.5-162.6l93.7-57.4 4440.6-5.7c2443.2-3.8 4476.9 0 4519 5.7 179.8 24.9 359.7 214.3 419 440 44 170.3 44 4170.8 0 4343-40.2 153.1-149.2 309.9-265.9 382.6l-93.7 57.4-4478.8 3.8c-3707.8 3.9-4490.3 0-4551.6-21zm675.4-1369.9v-344.4h-707.9v688.8h707.8v-344.4zm1052.3 0v-344.4h-707.8v688.8h707.8zm1052.2 0v-344.4h-707.8v688.8h707.8zm1033.2 0v-344.4h-688.8v688.8h688.8zm1052.2 0v-344.4h-688.8v688.8h688.8zm1052.3 0v-344.4h-688.8v688.8h688.8zm1052.3 0v-344.4h-707.8v688.8h707.8zm1052.3 0v-344.4h-707.8v688.8h707.8zm1052.2 0v-344.4h-707.8v688.8h707.8zm-7882.4-1052.2v-344.4h-1224.5v688.8h1224.4v-344.4zm1052.2 0v-344.4h-688.8v688.8h688.8zm1052.3 0v-344.4h-707.8v688.8h707.8zm1052.3 0v-344.4h-707.8v688.8h707.8zm1052.2 0v-344.4h-707.8v688.8h707.8zm1052.3 0v-344.4h-707.8v688.8h707.8zm1033.1 0v-344.4h-688.7v688.8h688.8v-344.4zm1588 0v-344.4h-1224.4v688.8h1224.4zm-7518.9-1042.7v-353.9h-1588v707.8h1588zm1033.1 0v-353.9h-688.8v707.8h688.8zm1052.3 0v-353.9h-688.8v707.8h688.8zm1052.3 0v-353.9h-688.8v707.8h688.8zm1052.2 0v-353.9h-707.8v707.8h707.8zm1052.3 0v-353.9h-707.8v707.8h707.8zm2276.7 0v-353.9h-1932.3v707.8h1932.4v-353.9zm-8399-1052.3v-353.9h-707.9v707.8h707.8v-353.9zm1052.3 0v-353.9h-707.8v707.8h707.8zm1052.2 0v-353.9h-707.8v707.8h707.8zm4017.8 0v-353.9h-3673.4v707.8h3673.4zm1224.5 0v-353.9h-880v707.8h880zm1052.2 0v-353.9h-707.8v707.8h707.8z" fill="#04080f"/>
     </g>
    </g>
   </g>
  </g>
  <text x="72.697311" y="55.922886" fill="#000000" font-family="sans-serif" font-size="10.583px" letter-spacing="0px" stroke-width=".26458" word-spacing="0px" style="line-height:1.25" xml:space="preserve"><tspan x="72.697311" y="65.286652" stroke-width=".26458"/></text>
 </g>
</svg>
