<?xml version="1.0" encoding="UTF-8"?>
<!-- Created with Inkscape (http://www.inkscape.org/) -->
<svg width="40.391mm" height="39.966mm" version="1.1" viewBox="0 0 40.390541 39.965633" xmlns="http://www.w3.org/2000/svg" xmlns:cc="http://creativecommons.org/ns#" xmlns:dc="http://purl.org/dc/elements/1.1/" xmlns:rdf="http://www.w3.org/1999/02/22-rdf-syntax-ns#">
 <metadata>
  <rdf:RDF>
   <cc:Work rdf:about="">
    <dc:format>image/svg+xml</dc:format>
    <dc:type rdf:resource="http://purl.org/dc/dcmitype/StillImage"/>
    <dc:title/>
   </cc:Work>
  </rdf:RDF>
 </metadata>
 <g transform="translate(73.659 -76.684)">
  <text x="72.697311" y="55.922886" fill="#000000" font-family="sans-serif" font-size="10.583px" letter-spacing="0px" stroke-width=".26458" word-spacing="0px" style="line-height:1.25" xml:space="preserve"><tspan x="72.697311" y="65.286652" stroke-width=".26458"/></text>
  <g transform="translate(-85.874 52.378)">
   <circle cx="33.149" cy="44.814" r="19.279" fill="#04080f" stroke="#04080f" stroke-width=".35474"/>
   <circle cx="31.671" cy="43.762" r="19.279" fill="#a1c6ea" stroke="#a1c6ea" stroke-width=".35474"/>
  </g>
  <g transform="matrix(.2633 0 0 .2633 -131.75 56.009)">
   <g transform="matrix(.089171 0 0 .089171 252.76 109.83)">
    <g transform="matrix(.1 0 0 -.1 0 466)">
     <path d="m1552.8 4064.3c-78.5-78.5-70.8-195.2 19.1-264.1 23-19.1 788.6-23 3431.9-24.9h3399.4l49.8 59.3c67 78.5 65.1 158.9-5.8 229.7l-55.5 55.5h-6783.4z"/>
     <path d="m1085.7 3413.5c-122.5-51.7-149.3-204.8-49.8-292.9l59.3-53.6h7805.6l59.3 49.8c76.6 63.2 82.3 170.4 13.4 250.7l-45.9 53.6-3902.8 3.8c-2145.6 2-3918-3.8-3939.1-11.4z"/>
     <path d="m500 2667c-74.6-74.6-74.6-153.1 0-235.4l55.5-63.2h8889l55.5 63.2c74.7 82.3 74.7 160.8 0 235.4l-55.5 55.5h-8889z"/>
     <path d="m149.8 1955-49.8-59.3v-6584.4l55.5-55.5 55.5-55.5h9578l55.5 55.5 55.5 55.5v6584.4l-49.8 59.3-49.8 59.3h-9600.9zm9401.8-3342-5.7-3058.7h-9091.8l-5.7 3058.7-3.8 3056.8h9110.9z"/>
    </g>
   </g>
   <rect x="256.81" y="136.5" width="81.158" height="54.532" fill="#fff"/>
  </g>
 </g>
</svg>
