<?xml version="1.0" encoding="utf-8"?>
<!-- Svg Vector Icons : http://www.onlinewebfonts.com/icon -->
<!DOCTYPE svg PUBLIC "-//W3C//DTD SVG 1.1//EN" "http://www.w3.org/Graphics/SVG/1.1/DTD/svg11.dtd">
<svg version="1.1" xmlns="http://www.w3.org/2000/svg" xmlns:xlink="http://www.w3.org/1999/xlink" x="0px" y="0px" viewBox="0 0 1000 1000" enable-background="new 0 0 1000 1000" xml:space="preserve">
<metadata> Svg Vector Icons : http://www.onlinewebfonts.com/icon </metadata>
<g><g transform="translate(0.000000,466.000000) scale(0.100000,-0.100000)"><path d="M1552.8,4064.3c-78.5-78.5-70.8-195.2,19.1-264.1c23-19.1,788.6-23,3431.9-24.9h3399.4l49.8,59.3c67,78.5,65.1,158.9-5.8,229.7l-55.5,55.5H5000H1608.3L1552.8,4064.3z"/><path d="M1085.7,3413.5c-122.5-51.7-149.3-204.8-49.8-292.9l59.3-53.6h3902.8h3902.8l59.3,49.8c76.6,63.2,82.3,170.4,13.4,250.7l-45.9,53.6l-3902.8,3.8C2879.2,3426.9,1106.8,3421.1,1085.7,3413.5z"/><path d="M500,2667c-74.6-74.6-74.6-153.1,0-235.4l55.5-63.2H5000h4444.5l55.5,63.2c74.7,82.3,74.7,160.8,0,235.4l-55.5,55.5H5000H555.5L500,2667z"/><path d="M149.8,1955l-49.8-59.3v-3292.2v-3292.2l55.5-55.5l55.5-55.5h4789h4789l55.5,55.5l55.5,55.5v3292.2v3292.2l-49.8,59.3l-49.8,59.3H5000H199.5L149.8,1955z M9551.6-1387l-5.7-3058.7H5000H454.1L448.4-1387l-3.8,3056.8H5000h4555.5L9551.6-1387z"/></g></g>
</svg>